# xmcd
#
# Track frame offsets:
# 150
# 15701
# 35232
# 50272
# 63365
# 79542
# 83631
# 99888
# 113649
# 124952
# 139401
# 153332
#
# Disc length: 2234 seconds
#
#
# Revision: 0
# Processed by: cddbd v1.5.1PL2 Copyright (c) Steve Scherf et al.
# Submitted via: FreeRIP 2.945 
#
DISCID=9308b80c
DTITLE=Milionário and José Rico - Vol 19 - SONHEI COM VOCÊ - NO CINEMA
DYEAR=1989
DGENRE=Sertanejo
TTITLE0=TEMA DE NOSSA SENHORA APARECIDA
TTITLE1=SONHEI COM VOCÊ
TTITLE2=MINHA VOLTA
TTITLE3=SOZINHO NA ESTRADA
TTITLE4=VIVA A VIDA
TTITLE5=TEMA "BOLERO"
TTITLE6=SONHO DE UM CAMINHONEIRO
TTITLE7=SAUDADE DE MINHA TERRA
TTITLE8=ENTREVISTA
TTITLE9=PAIXÃO DE UM HOMEM
TTITLE10=JORNADA DA VIDA
TTITLE11=BERÇO DE DEUS
EXTD=
EXTT0=
EXTT1=
EXTT2=
EXTT3=
EXTT4=
EXTT5=
EXTT6=
EXTT7=
EXTT8=
EXTT9=
EXTT10=
EXTT11=
PLAYORDER=
